<?xml version="1.0" encoding="utf-8"?>
<!-- Generator: Adobe Illustrator 16.0.0, SVG Export Plug-In . SVG Version: 6.00 Build 0)  -->
<!DOCTYPE svg PUBLIC "-//W3C//DTD SVG 1.1//EN" "http://www.w3.org/Graphics/SVG/1.1/DTD/svg11.dtd">
<svg version="1.1" id="Layer_1" xmlns="http://www.w3.org/2000/svg" xmlns:xlink="http://www.w3.org/1999/xlink" x="0px" y="0px"
	 width="841.891px" height="595.279px" viewBox="0 0 841.891 595.279" enable-background="new 0 0 841.891 595.279"
	 xml:space="preserve">
<line fill="none" stroke="#FFFFFF" stroke-width="3" stroke-miterlimit="10" x1="829.156" y1="304.023" x2="806.318" y2="244.951"/>
<line fill="none" stroke="#FFFFFF" stroke-width="3" stroke-miterlimit="10" x1="806.318" y1="244.951" x2="778.914" y2="152.906"/>
<line fill="none" stroke="#FFFFFF" stroke-width="3" stroke-miterlimit="10" x1="778.914" y1="152.906" x2="593.173" y2="136.421"/>
<line fill="none" stroke="#FFFFFF" stroke-width="3" stroke-miterlimit="10" x1="593.173" y1="136.421" x2="492.688" y2="244.951"/>
<line fill="none" stroke="#FFFFFF" stroke-width="3" stroke-miterlimit="10" x1="492.688" y1="244.951" x2="622.099" y2="217.475"/>
<line fill="none" stroke="#FFFFFF" stroke-width="3" stroke-miterlimit="10" x1="622.099" y1="217.475" x2="728.673" y2="304.023"/>
<line fill="none" stroke="#FFFFFF" stroke-width="3" stroke-miterlimit="10" x1="728.673" y1="304.023" x2="719.538" y2="457.887"/>
<line fill="none" stroke="#FFFFFF" stroke-width="3" stroke-miterlimit="10" x1="698.222" y1="205.111" x2="660.161" y2="173.514"/>
<line fill="none" stroke="#FFFFFF" stroke-width="3" stroke-miterlimit="10" x1="660.161" y1="173.514" x2="611.44" y2="91.087"/>
<line fill="none" stroke="#FFFFFF" stroke-width="3" stroke-miterlimit="10" x1="611.44" y1="91.087" x2="492.688" y2="97.955"/>
<line fill="none" stroke="#FFFFFF" stroke-width="3" stroke-miterlimit="10" x1="492.688" y1="97.955" x2="478.988" y2="231.212"/>
<line fill="none" stroke="#FFFFFF" stroke-width="3" stroke-miterlimit="10" x1="443.969" y1="205.111" x2="471.374" y2="132.3"/>
<line fill="none" stroke="#FFFFFF" stroke-width="3" stroke-miterlimit="10" x1="471.374" y1="132.3" x2="471.374" y2="12.78"/>
<line fill="none" stroke="#FFFFFF" stroke-width="3" stroke-miterlimit="10" x1="471.374" y1="12.78" x2="431.79" y2="52.62"/>
<line fill="none" stroke="#FFFFFF" stroke-width="3" stroke-miterlimit="10" x1="431.79" y1="52.62" x2="443.969" y2="82.843"/>
<line fill="none" stroke="#FFFFFF" stroke-width="3" stroke-miterlimit="10" x1="313.036" y1="168.705" x2="273.451" y2="106.198"/>
<line fill="none" stroke="#FFFFFF" stroke-width="3" stroke-miterlimit="10" x1="273.451" y1="106.198" x2="137.951" y2="106.198"/>
<line fill="none" stroke="#FFFFFF" stroke-width="3" stroke-miterlimit="10" x1="137.951" y1="106.198" x2="63.35" y2="183.13"/>
<line fill="none" stroke="#FFFFFF" stroke-width="3" stroke-miterlimit="10" x1="63.35" y1="183.13" x2="29.856" y2="183.13"/>
<line fill="none" stroke="#FFFFFF" stroke-width="3" stroke-miterlimit="10" x1="313.036" y1="225.717" x2="258.228" y2="198.928"/>
<line fill="none" stroke="#FFFFFF" stroke-width="3" stroke-miterlimit="10" x1="258.228" y1="198.928" x2="227.776" y2="205.111"/>
<line fill="none" stroke="#FFFFFF" stroke-width="3" stroke-miterlimit="10" x1="227.776" y1="205.111" x2="128.817" y2="264.787"/>
<line fill="none" stroke="#FFFFFF" stroke-width="3" stroke-miterlimit="10" x1="128.817" y1="264.787" x2="55.737" y2="358.975"/>
<line fill="none" stroke="#FFFFFF" stroke-width="3" stroke-miterlimit="10" x1="55.737" y1="358.975" x2="29.856" y2="371.339"/>
<line fill="none" stroke="#FFFFFF" stroke-width="3" stroke-miterlimit="10" x1="363.278" y1="264.787" x2="313.036" y2="264.787"/>
<line fill="none" stroke="#FFFFFF" stroke-width="3" stroke-miterlimit="10" x1="313.036" y1="264.787" x2="303.901" y2="284.791"/>
<line fill="none" stroke="#FFFFFF" stroke-width="3" stroke-miterlimit="10" x1="303.901" y1="284.791" x2="273.451" y2="390.571"/>
<line fill="none" stroke="#FFFFFF" stroke-width="3" stroke-miterlimit="10" x1="273.451" y1="390.571" x2="273.451" y2="424.915"/>
<line fill="none" stroke="#FFFFFF" stroke-width="3" stroke-miterlimit="10" x1="273.451" y1="424.915" x2="308.469" y2="578.78"/>
<line fill="none" stroke="#FFFFFF" stroke-width="3" stroke-miterlimit="10" x1="471.374" y1="467.503" x2="413.519" y2="304.023"/>
<line fill="none" stroke="#FFFFFF" stroke-width="3" stroke-miterlimit="10" x1="431.79" y1="304.023" x2="437.88" y2="311.879"/>
<line fill="none" stroke="#FFFFFF" stroke-width="3" stroke-miterlimit="10" x1="437.88" y1="312.266" x2="451.581" y2="313.639"/>
<line fill="none" stroke="#FFFFFF" stroke-width="3" stroke-miterlimit="10" x1="492.688" y1="304.023" x2="507.913" y2="304.023"/>
<line fill="none" stroke="#FFFFFF" stroke-width="3" stroke-miterlimit="10" x1="492.688" y1="244.951" x2="500.3" y2="274.487"/>
<line fill="none" stroke="#FFFFFF" stroke-width="3" stroke-miterlimit="10" x1="492.688" y1="304.023" x2="451.581" y2="313.639"/>
<line fill="none" stroke="#FFFFFF" stroke-width="3" stroke-miterlimit="10" x1="451.581" y1="313.639" x2="422.654" y2="304.023"/>
<line fill="none" stroke="#FFFFFF" stroke-width="3" stroke-miterlimit="10" x1="313.036" y1="225.717" x2="313.036" y2="168.705"/>
<line fill="none" stroke="#FFFFFF" stroke-width="3" stroke-miterlimit="10" x1="363.278" y1="155.311" x2="408.952" y2="163.209"/>
<line fill="none" stroke="#FFFFFF" stroke-width="3" stroke-miterlimit="10" x1="408.952" y1="163.209" x2="413.519" y2="190.686"/>
<line fill="none" stroke="#FFFFFF" stroke-width="3" stroke-miterlimit="10" x1="413.519" y1="205.111" x2="443.969" y2="205.111"/>
<line fill="none" stroke="#FFFFFF" stroke-width="3" stroke-miterlimit="10" x1="443.969" y1="205.111" x2="457.673" y2="225.717"/>
<line fill="none" stroke="#FFFFFF" stroke-width="3" stroke-miterlimit="10" x1="457.673" y1="225.717" x2="478.988" y2="231.212"/>
<line fill="none" stroke="#FFFFFF" stroke-width="3" stroke-miterlimit="10" x1="437.88" y1="311.879" x2="442.447" y2="324.631"/>
<line fill="none" stroke="#FFFFFF" stroke-width="0.5" stroke-miterlimit="10" x1="778.914" y1="152.906" x2="841.89" y2="0"/>
<line fill="none" stroke="#FFFFFF" stroke-width="0.5" stroke-miterlimit="10" x1="611.44" y1="91.087" x2="841.89" y2="0"/>
<line fill="none" stroke="#FFFFFF" stroke-width="0.5" stroke-miterlimit="10" x1="611.44" y1="91.087" x2="471.374" y2="12.78"/>
<line fill="none" stroke="#FFFFFF" stroke-width="0.5" stroke-miterlimit="10" x1="492.688" y1="97.955" x2="471.374" y2="12.78"/>
<line fill="none" stroke="#FFFFFF" stroke-width="0.5" stroke-miterlimit="10" x1="471.374" y1="132.3" x2="443.969" y2="82.843"/>
<line fill="none" stroke="#FFFFFF" stroke-width="0.5" stroke-miterlimit="10" x1="443.969" y1="82.843" x2="443.969" y2="205.111"/>
<line fill="none" stroke="#FFFFFF" stroke-width="0.5" stroke-miterlimit="10" x1="698.222" y1="205.111" x2="616.597" y2="218.642"/>
<line fill="none" stroke="#FFFFFF" stroke-width="0.5" stroke-miterlimit="10" x1="616.597" y1="218.642" x2="593.173" y2="136.421"/>
<line fill="none" stroke="#FFFFFF" stroke-width="0.5" stroke-miterlimit="10" x1="593.173" y1="136.421" x2="492.688" y2="97.955"/>
<line fill="none" stroke="#FFFFFF" stroke-width="0.5" stroke-miterlimit="10" x1="728.673" y1="304.023" x2="778.914" y2="152.906"/>
<line fill="none" stroke="#FFFFFF" stroke-width="0.5" stroke-miterlimit="10" x1="728.673" y1="304.023" x2="829.156" y2="304.023"/>
<line fill="none" stroke="#FFFFFF" stroke-width="0.5" stroke-miterlimit="10" x1="728.673" y1="304.023" x2="698.222" y2="205.111"/>
<line fill="none" stroke="#FFFFFF" stroke-width="0.5" stroke-miterlimit="10" x1="719.538" y1="457.887" x2="841.89" y2="595.28"/>
<line fill="none" stroke="#FFFFFF" stroke-width="0.5" stroke-miterlimit="10" x1="719.538" y1="457.887" x2="622.099" y2="217.475"/>
<line fill="none" stroke="#FFFFFF" stroke-width="0.5" stroke-miterlimit="10" x1="622.099" y1="217.475" x2="507.913" y2="304.023"/>
<line fill="none" stroke="#FFFFFF" stroke-width="0.5" stroke-miterlimit="10" x1="507.913" y1="304.023" x2="471.374" y2="467.503"/>
<line fill="none" stroke="#FFFFFF" stroke-width="0.5" stroke-miterlimit="10" x1="471.374" y1="467.503" x2="616.597" y2="228.465"/>
<line fill="none" stroke="#FFFFFF" stroke-width="0.5" stroke-miterlimit="10" x1="719.538" y1="457.887" x2="578.204" y2="595.28"/>
<line fill="none" stroke="#FFFFFF" stroke-width="0.5" stroke-miterlimit="10" x1="578.204" y1="595.28" x2="471.374" y2="467.503"/>
<line fill="none" stroke="#FFFFFF" stroke-width="0.5" stroke-miterlimit="10" x1="471.374" y1="467.503" x2="308.469" y2="578.78"/>
<line fill="none" stroke="#FFFFFF" stroke-width="0.5" stroke-miterlimit="10" x1="308.469" y1="578.78" x2="128.817" y2="264.787"/>
<line fill="none" stroke="#FFFFFF" stroke-width="0.5" stroke-miterlimit="10" x1="128.817" y1="264.787" x2="1" y2="595.28"/>
<line fill="none" stroke="#FFFFFF" stroke-width="0.5" stroke-miterlimit="10" x1="1" y1="595.28" x2="34.849" y2="365.156"/>
<line fill="none" stroke="#FFFFFF" stroke-width="0.5" stroke-miterlimit="10" x1="137.951" y1="106.198" x2="1" y2="0"/>
<line fill="none" stroke="#FFFFFF" stroke-width="0.5" stroke-miterlimit="10" x1="1" y1="0" x2="63.35" y2="183.13"/>
<line fill="none" stroke="#FFFFFF" stroke-width="0.5" stroke-miterlimit="10" x1="29.856" y1="183.13" x2="1" y2="0"/>
<line fill="none" stroke="#FFFFFF" stroke-width="0.5" stroke-miterlimit="10" x1="431.79" y1="52.62" x2="273.451" y2="106.198"/>
<line fill="none" stroke="#FFFFFF" stroke-width="0.5" stroke-miterlimit="10" x1="273.451" y1="106.198" x2="218.644" y2="0"/>
<line fill="none" stroke="#FFFFFF" stroke-width="0.5" stroke-miterlimit="10" x1="258.228" y1="198.928" x2="137.951" y2="106.198"/>
<line fill="none" stroke="#FFFFFF" stroke-width="0.5" stroke-miterlimit="10" x1="137.951" y1="106.198" x2="128.817" y2="264.787"/>
<line fill="none" stroke="#FFFFFF" stroke-width="0.5" stroke-miterlimit="10" x1="128.817" y1="264.787" x2="63.35" y2="183.13"/>
<line fill="none" stroke="#FFFFFF" stroke-width="0.5" stroke-miterlimit="10" x1="128.817" y1="264.787" x2="29.856" y2="183.13"/>
<line fill="none" stroke="#FFFFFF" stroke-width="0.5" stroke-miterlimit="10" x1="29.856" y1="183.13" x2="34.849" y2="365.156"/>
<line fill="none" stroke="#FFFFFF" stroke-width="0.5" stroke-miterlimit="10" x1="318.511" y1="264.787" x2="258.228" y2="205.111"/>
<line fill="none" stroke="#FFFFFF" stroke-width="0.5" stroke-miterlimit="10" x1="258.228" y1="205.111" x2="273.451" y2="390.571"/>
<line fill="none" stroke="#FFFFFF" stroke-width="0.5" stroke-miterlimit="10" x1="273.451" y1="390.571" x2="128.817" y2="264.787"/>
<line fill="none" stroke="#FFFFFF" stroke-width="0.5" stroke-miterlimit="10" x1="273.451" y1="424.915" x2="413.519" y2="304.023"/>
<line fill="none" stroke="#FFFFFF" stroke-width="0.5" stroke-miterlimit="10" x1="308.469" y1="578.78" x2="413.519" y2="304.023"/>
<line fill="none" stroke="#FFFFFF" stroke-width="0.5" stroke-miterlimit="10" x1="598.181" y1="435.28" x2="622.099" y2="217.475"/>
<line fill="none" stroke="#FFFFFF" stroke-width="0.5" stroke-miterlimit="10" x1="598.181" y1="435.28" x2="719.538" y2="457.887"/>
<line fill="none" stroke="#FFFFFF" stroke-width="0.5" stroke-miterlimit="10" x1="598.181" y1="435.28" x2="471.374" y2="467.503"/>
<line fill="none" stroke="#FFFFFF" stroke-width="0.5" stroke-miterlimit="10" x1="303.901" y1="578.78" x2="137.951" y2="489.28"/>
<line fill="none" stroke="#FFFFFF" stroke-width="0.5" stroke-miterlimit="10" x1="137.951" y1="489.28" x2="1" y2="595.28"/>
<line fill="none" stroke="#FFFFFF" stroke-width="0.5" stroke-miterlimit="10" x1="137.951" y1="489.28" x2="128.817" y2="264.787"/>
<line fill="none" stroke="#FFFFFF" stroke-width="0.5" stroke-miterlimit="10" x1="137.951" y1="106.198" x2="220.925" y2="4.423"/>
<line fill="none" stroke="#FFFFFF" stroke-width="0.5" stroke-miterlimit="10" x1="719.538" y1="457.887" x2="829.156" y2="304.023"/>
<line fill="none" stroke="#FFFFFF" stroke-width="0.5" stroke-miterlimit="10" x1="719.538" y1="457.887" x2="841.89" y2="441.401"/>
</svg>
