<?xml version="1.0" encoding="utf-8"?>
<!-- Generator: Adobe Illustrator 16.0.0, SVG Export Plug-In . SVG Version: 6.00 Build 0)  -->
<!DOCTYPE svg PUBLIC "-//W3C//DTD SVG 1.1//EN" "http://www.w3.org/Graphics/SVG/1.1/DTD/svg11.dtd">
<svg version="1.1" id="Layer_1" xmlns="http://www.w3.org/2000/svg" xmlns:xlink="http://www.w3.org/1999/xlink" x="0px" y="0px"
	 width="841.89px" height="595.279px" viewBox="0 0 841.89 595.279" enable-background="new 0 0 841.89 595.279"
	 xml:space="preserve">
<line fill="none" stroke="#FFFFFF" stroke-width="3" stroke-miterlimit="10" x1="12.75" y1="304.023" x2="35.614" y2="244.951"/>
<line fill="none" stroke="#FFFFFF" stroke-width="3" stroke-miterlimit="10" x1="35.614" y1="244.951" x2="63.052" y2="152.906"/>
<line fill="none" stroke="#FFFFFF" stroke-width="3" stroke-miterlimit="10" x1="63.052" y1="152.906" x2="249.014" y2="136.421"/>
<line fill="none" stroke="#FFFFFF" stroke-width="3" stroke-miterlimit="10" x1="249.014" y1="136.421" x2="349.617" y2="244.951"/>
<line fill="none" stroke="#FFFFFF" stroke-width="3" stroke-miterlimit="10" x1="349.617" y1="244.951" x2="220.053" y2="217.475"/>
<line fill="none" stroke="#FFFFFF" stroke-width="3" stroke-miterlimit="10" x1="220.053" y1="217.475" x2="113.353" y2="304.023"/>
<line fill="none" stroke="#FFFFFF" stroke-width="3" stroke-miterlimit="10" x1="113.353" y1="304.023" x2="122.499" y2="457.887"/>
<line fill="none" stroke="#FFFFFF" stroke-width="3" stroke-miterlimit="10" x1="143.839" y1="205.111" x2="181.946" y2="173.514"/>
<line fill="none" stroke="#FFFFFF" stroke-width="3" stroke-miterlimit="10" x1="181.946" y1="173.514" x2="230.723" y2="91.087"/>
<line fill="none" stroke="#FFFFFF" stroke-width="3" stroke-miterlimit="10" x1="230.723" y1="91.087" x2="349.617" y2="97.955"/>
<line fill="none" stroke="#FFFFFF" stroke-width="3" stroke-miterlimit="10" x1="349.617" y1="97.955" x2="363.335" y2="231.212"/>
<line fill="none" stroke="#FFFFFF" stroke-width="3" stroke-miterlimit="10" x1="398.395" y1="205.111" x2="370.958" y2="132.3"/>
<line fill="none" stroke="#FFFFFF" stroke-width="3" stroke-miterlimit="10" x1="370.958" y1="132.3" x2="370.958" y2="12.78"/>
<line fill="none" stroke="#FFFFFF" stroke-width="3" stroke-miterlimit="10" x1="370.958" y1="12.78" x2="410.589" y2="52.62"/>
<line fill="none" stroke="#FFFFFF" stroke-width="3" stroke-miterlimit="10" x1="410.589" y1="52.62" x2="398.395" y2="82.843"/>
<line fill="none" stroke="#FFFFFF" stroke-width="3" stroke-miterlimit="10" x1="529.484" y1="168.705" x2="569.115" y2="106.198"/>
<line fill="none" stroke="#FFFFFF" stroke-width="3" stroke-miterlimit="10" x1="569.115" y1="106.198" x2="704.777" y2="106.198"/>
<line fill="none" stroke="#FFFFFF" stroke-width="3" stroke-miterlimit="10" x1="704.777" y1="106.198" x2="779.464" y2="183.13"/>
<line fill="none" stroke="#FFFFFF" stroke-width="3" stroke-miterlimit="10" x1="779.464" y1="183.13" x2="813" y2="183.13"/>
<line fill="none" stroke="#FFFFFF" stroke-width="3" stroke-miterlimit="10" x1="529.484" y1="225.717" x2="584.357" y2="198.928"/>
<line fill="none" stroke="#FFFFFF" stroke-width="3" stroke-miterlimit="10" x1="584.357" y1="198.928" x2="614.843" y2="205.111"/>
<line fill="none" stroke="#FFFFFF" stroke-width="3" stroke-miterlimit="10" x1="614.843" y1="205.111" x2="713.921" y2="264.787"/>
<line fill="none" stroke="#FFFFFF" stroke-width="3" stroke-miterlimit="10" x1="713.921" y1="264.787" x2="787.087" y2="358.975"/>
<line fill="none" stroke="#FFFFFF" stroke-width="3" stroke-miterlimit="10" x1="787.087" y1="358.975" x2="813" y2="371.339"/>
<line fill="none" stroke="#FFFFFF" stroke-width="3" stroke-miterlimit="10" x1="479.181" y1="264.787" x2="529.484" y2="264.787"/>
<line fill="none" stroke="#FFFFFF" stroke-width="3" stroke-miterlimit="10" x1="529.484" y1="264.787" x2="538.628" y2="284.791"/>
<line fill="none" stroke="#FFFFFF" stroke-width="3" stroke-miterlimit="10" x1="538.628" y1="284.791" x2="569.115" y2="390.571"/>
<line fill="none" stroke="#FFFFFF" stroke-width="3" stroke-miterlimit="10" x1="569.115" y1="390.571" x2="569.115" y2="424.915"/>
<line fill="none" stroke="#FFFFFF" stroke-width="3" stroke-miterlimit="10" x1="569.115" y1="424.915" x2="534.056" y2="578.78"/>
<line fill="none" stroke="#FFFFFF" stroke-width="3" stroke-miterlimit="10" x1="370.958" y1="467.503" x2="428.88" y2="304.023"/>
<line fill="none" stroke="#FFFFFF" stroke-width="3" stroke-miterlimit="10" x1="410.589" y1="304.023" x2="404.491" y2="311.879"/>
<line fill="none" stroke="#FFFFFF" stroke-width="3" stroke-miterlimit="10" x1="404.491" y1="312.266" x2="390.774" y2="313.639"/>
<line fill="none" stroke="#FFFFFF" stroke-width="3" stroke-miterlimit="10" x1="349.617" y1="304.023" x2="334.375" y2="304.023"/>
<line fill="none" stroke="#FFFFFF" stroke-width="3" stroke-miterlimit="10" x1="349.617" y1="244.951" x2="341.996" y2="274.487"/>
<line fill="none" stroke="#FFFFFF" stroke-width="3" stroke-miterlimit="10" x1="349.617" y1="304.023" x2="390.774" y2="313.639"/>
<line fill="none" stroke="#FFFFFF" stroke-width="3" stroke-miterlimit="10" x1="390.774" y1="313.639" x2="419.735" y2="304.023"/>
<line fill="none" stroke="#FFFFFF" stroke-width="3" stroke-miterlimit="10" x1="529.484" y1="225.717" x2="529.484" y2="168.705"/>
<line fill="none" stroke="#FFFFFF" stroke-width="3" stroke-miterlimit="10" x1="479.181" y1="155.311" x2="433.453" y2="163.209"/>
<line fill="none" stroke="#FFFFFF" stroke-width="3" stroke-miterlimit="10" x1="433.453" y1="163.209" x2="428.88" y2="190.686"/>
<line fill="none" stroke="#FFFFFF" stroke-width="3" stroke-miterlimit="10" x1="428.88" y1="205.111" x2="398.395" y2="205.111"/>
<line fill="none" stroke="#FFFFFF" stroke-width="3" stroke-miterlimit="10" x1="398.395" y1="205.111" x2="384.676" y2="225.717"/>
<line fill="none" stroke="#FFFFFF" stroke-width="3" stroke-miterlimit="10" x1="384.676" y1="225.717" x2="363.335" y2="231.212"/>
<line fill="none" stroke="#FFFFFF" stroke-width="3" stroke-miterlimit="10" x1="404.491" y1="311.879" x2="399.918" y2="324.631"/>
<line fill="none" stroke="#FFFFFF" stroke-width="0.5" stroke-miterlimit="10" x1="63.052" y1="152.906" x2="0" y2="0"/>
<line fill="none" stroke="#FFFFFF" stroke-width="0.5" stroke-miterlimit="10" x1="230.723" y1="91.087" x2="0" y2="0"/>
<line fill="none" stroke="#FFFFFF" stroke-width="0.5" stroke-miterlimit="10" x1="230.723" y1="91.087" x2="370.958" y2="12.78"/>
<line fill="none" stroke="#FFFFFF" stroke-width="0.5" stroke-miterlimit="10" x1="349.617" y1="97.955" x2="370.958" y2="12.78"/>
<line fill="none" stroke="#FFFFFF" stroke-width="0.5" stroke-miterlimit="10" x1="370.958" y1="132.3" x2="398.395" y2="82.843"/>
<line fill="none" stroke="#FFFFFF" stroke-width="0.5" stroke-miterlimit="10" x1="398.395" y1="82.843" x2="398.395" y2="205.111"/>
<line fill="none" stroke="#FFFFFF" stroke-width="0.5" stroke-miterlimit="10" x1="143.839" y1="205.111" x2="225.56" y2="218.642"/>
<line fill="none" stroke="#FFFFFF" stroke-width="0.5" stroke-miterlimit="10" x1="225.56" y1="218.642" x2="249.014" y2="136.421"/>
<line fill="none" stroke="#FFFFFF" stroke-width="0.5" stroke-miterlimit="10" x1="249.014" y1="136.421" x2="349.617" y2="97.955"/>
<line fill="none" stroke="#FFFFFF" stroke-width="0.5" stroke-miterlimit="10" x1="113.353" y1="304.023" x2="63.052" y2="152.906"/>
<line fill="none" stroke="#FFFFFF" stroke-width="0.5" stroke-miterlimit="10" x1="113.353" y1="304.023" x2="12.75" y2="304.023"/>
<line fill="none" stroke="#FFFFFF" stroke-width="0.5" stroke-miterlimit="10" x1="113.353" y1="304.023" x2="143.839" y2="205.111"/>
<line fill="none" stroke="#FFFFFF" stroke-width="0.5" stroke-miterlimit="10" x1="122.499" y1="457.887" x2="0" y2="595.28"/>
<line fill="none" stroke="#FFFFFF" stroke-width="0.5" stroke-miterlimit="10" x1="122.499" y1="457.887" x2="220.053" y2="217.475"/>
<line fill="none" stroke="#FFFFFF" stroke-width="0.5" stroke-miterlimit="10" x1="220.053" y1="217.475" x2="334.375" y2="304.023"/>
<line fill="none" stroke="#FFFFFF" stroke-width="0.5" stroke-miterlimit="10" x1="334.375" y1="304.023" x2="370.958" y2="467.503"/>
<line fill="none" stroke="#FFFFFF" stroke-width="0.5" stroke-miterlimit="10" x1="370.958" y1="467.503" x2="225.56" y2="228.465"/>
<line fill="none" stroke="#FFFFFF" stroke-width="0.5" stroke-miterlimit="10" x1="122.499" y1="457.887" x2="264" y2="595.28"/>
<line fill="none" stroke="#FFFFFF" stroke-width="0.5" stroke-miterlimit="10" x1="264" y1="595.28" x2="370.958" y2="467.503"/>
<line fill="none" stroke="#FFFFFF" stroke-width="0.5" stroke-miterlimit="10" x1="370.958" y1="467.503" x2="534.056" y2="578.78"/>
<line fill="none" stroke="#FFFFFF" stroke-width="0.5" stroke-miterlimit="10" x1="534.056" y1="578.78" x2="713.921" y2="264.787"/>
<line fill="none" stroke="#FFFFFF" stroke-width="0.5" stroke-miterlimit="10" x1="713.921" y1="264.787" x2="841.89" y2="595.28"/>
<line fill="none" stroke="#FFFFFF" stroke-width="0.5" stroke-miterlimit="10" x1="841.89" y1="595.28" x2="808" y2="365.156"/>
<line fill="none" stroke="#FFFFFF" stroke-width="0.5" stroke-miterlimit="10" x1="704.777" y1="106.198" x2="841.89" y2="0"/>
<line fill="none" stroke="#FFFFFF" stroke-width="0.5" stroke-miterlimit="10" x1="841.89" y1="0" x2="779.464" y2="183.13"/>
<line fill="none" stroke="#FFFFFF" stroke-width="0.5" stroke-miterlimit="10" x1="813" y1="183.13" x2="841.89" y2="0"/>
<line fill="none" stroke="#FFFFFF" stroke-width="0.5" stroke-miterlimit="10" x1="410.589" y1="52.62" x2="569.115" y2="106.198"/>
<line fill="none" stroke="#FFFFFF" stroke-width="0.5" stroke-miterlimit="10" x1="569.115" y1="106.198" x2="623.988" y2="0"/>
<line fill="none" stroke="#FFFFFF" stroke-width="0.5" stroke-miterlimit="10" x1="584.357" y1="198.928" x2="704.777" y2="106.198"/>
<line fill="none" stroke="#FFFFFF" stroke-width="0.5" stroke-miterlimit="10" x1="704.777" y1="106.198" x2="713.921" y2="264.787"/>
<line fill="none" stroke="#FFFFFF" stroke-width="0.5" stroke-miterlimit="10" x1="713.921" y1="264.787" x2="779.464" y2="183.13"/>
<line fill="none" stroke="#FFFFFF" stroke-width="0.5" stroke-miterlimit="10" x1="713.921" y1="264.787" x2="813" y2="183.13"/>
<line fill="none" stroke="#FFFFFF" stroke-width="0.5" stroke-miterlimit="10" x1="813" y1="183.13" x2="808" y2="365.156"/>
<line fill="none" stroke="#FFFFFF" stroke-width="0.5" stroke-miterlimit="10" x1="524" y1="264.787" x2="584.357" y2="205.111"/>
<line fill="none" stroke="#FFFFFF" stroke-width="0.5" stroke-miterlimit="10" x1="584.357" y1="205.111" x2="569.115" y2="390.571"/>
<line fill="none" stroke="#FFFFFF" stroke-width="0.5" stroke-miterlimit="10" x1="569.115" y1="390.571" x2="713.921" y2="264.787"/>
<line fill="none" stroke="#FFFFFF" stroke-width="0.5" stroke-miterlimit="10" x1="569.115" y1="424.915" x2="428.88" y2="304.023"/>
<line fill="none" stroke="#FFFFFF" stroke-width="0.5" stroke-miterlimit="10" x1="534.056" y1="578.78" x2="428.88" y2="304.023"/>
<line fill="none" stroke="#FFFFFF" stroke-width="0.5" stroke-miterlimit="10" x1="244" y1="435.28" x2="220.053" y2="217.475"/>
<line fill="none" stroke="#FFFFFF" stroke-width="0.5" stroke-miterlimit="10" x1="244" y1="435.28" x2="122.499" y2="457.887"/>
<line fill="none" stroke="#FFFFFF" stroke-width="0.5" stroke-miterlimit="10" x1="244" y1="435.28" x2="370.958" y2="467.503"/>
<line fill="none" stroke="#FFFFFF" stroke-width="0.5" stroke-miterlimit="10" x1="538.628" y1="578.78" x2="704.777" y2="489.28"/>
<line fill="none" stroke="#FFFFFF" stroke-width="0.5" stroke-miterlimit="10" x1="704.777" y1="489.28" x2="841.89" y2="595.28"/>
<line fill="none" stroke="#FFFFFF" stroke-width="0.5" stroke-miterlimit="10" x1="704.777" y1="489.28" x2="713.921" y2="264.787"/>
<line fill="none" stroke="#FFFFFF" stroke-width="0.5" stroke-miterlimit="10" x1="704.777" y1="106.198" x2="621.703" y2="4.423"/>
<line fill="none" stroke="#FFFFFF" stroke-width="0.5" stroke-miterlimit="10" x1="122.499" y1="457.887" x2="12.75" y2="304.023"/>
<line fill="none" stroke="#FFFFFF" stroke-width="0.5" stroke-miterlimit="10" x1="122.499" y1="457.887" x2="0" y2="441.401"/>
</svg>
