<?xml version="1.0" encoding="utf-8"?><!-- Generator: Adobe Illustrator 16.0.0, SVG Export Plug-In . SVG Version: 6.00 Build 0)  --><!DOCTYPE svg PUBLIC "-//W3C//DTD SVG 1.1//EN" "http://www.w3.org/Graphics/SVG/1.1/DTD/svg11.dtd"><svg version="1.1" id="Layer_1" xmlns="http://www.w3.org/2000/svg" xmlns:xlink="http://www.w3.org/1999/xlink" x="0px" y="0px"	width="100%" height="100%"><line fill="none" stroke="white" stroke-miterlimit="1" x1="8.43%" x2="0.00%" y1="99.95%" y2="85.67%"/><line fill="none" stroke="white" stroke-miterlimit="1" x1="90.63%" x2="100.01%" y1="99.95%" y2="85.67%"/><line fill="none" stroke="white" stroke-miterlimit="1" x1="90.63%" x2="52.62%" y1="99.95%" y2="50.56%"/><line fill="none" stroke="white" stroke-miterlimit="1" x1="52.62%" x2="8.43%" y1="50.56%" y2="99.95%"/><line fill="none" stroke="white" stroke-miterlimit="1" x1="52.62%" x2="0.00%" y1="50.56%" y2="0.00%"/><line fill="none" stroke="white" stroke-miterlimit="1" x1="52.62%" x2="100.01%" y1="50.56%" y2="85.67%"/><line fill="none" stroke="white" stroke-miterlimit="1" x1="100.01%" x2="95.26%" y1="85.67%" y2="0.00%"/><line fill="none" stroke="white" stroke-miterlimit="1" x1="100.01%" x2="89.32%" y1="78.28%" y2="0.00%"/><line fill="none" stroke="white" stroke-miterlimit="1" x1="100.01%" x2="82.08%" y1="68.04%" y2="0.00%"/><line fill="none" stroke="white" stroke-miterlimit="1" x1="100.01%" x2="74.71%" y1="59.13%" y2="0.00%"/><line fill="none" stroke="white" stroke-miterlimit="1" x1="100.01%" x2="68.18%" y1="50.56%" y2="0.00%"/><line fill="none" stroke="white" stroke-miterlimit="1" x1="100.01%" x2="58.68%" y1="40.82%" y2="0.00%"/><line fill="none" stroke="white" stroke-miterlimit="1" x1="100.01%" x2="50.01%" y1="31.92%" y2="0.00%"/><line fill="none" stroke="white" stroke-miterlimit="1" x1="100.01%" x2="41.22%" y1="22.51%" y2="0.00%"/><line fill="none" stroke="white" stroke-miterlimit="1" x1="100.01%" x2="32.55%" y1="13.94%" y2="0.00%"/><line fill="none" stroke="white" stroke-miterlimit="1" x1="100.01%" x2="26.37%" y1="6.89%" y2="0.00%"/><line fill="none" stroke="white" stroke-miterlimit="1" x1="8.43%" x2="90.63%" y1="99.95%" y2="99.95%"/><line fill="none" stroke="white" stroke-miterlimit="1" x1="8.43%" x2="46.32%" y1="99.95%" y2="44.52%"/><line fill="none" stroke="white" stroke-miterlimit="1" x1="13.18%" x2="39.79%" y1="94.58%" y2="38.13%"/><line fill="none" stroke="white" stroke-miterlimit="1" x1="19.36%" x2="33.26%" y1="87.69%" y2="31.92%"/><line fill="none" stroke="white" stroke-miterlimit="1" x1="26.37%" x2="26.37%" y1="80.13%" y2="25.20%"/><line fill="none" stroke="white" stroke-miterlimit="1" x1="31.71%" x2="19.36%" y1="73.91%" y2="18.65%"/><line fill="none" stroke="white" stroke-miterlimit="1" x1="38.48%" x2="11.76%" y1="66.36%" y2="11.26%"/><line fill="none" stroke="white" stroke-miterlimit="1" x1="46.32%" x2="0.83%" y1="57.62%" y2="0.84%"/><line fill="none" stroke="white" stroke-miterlimit="1" x1="13.18%" x2="90.63%" y1="94.58%" y2="99.95%"/><line fill="none" stroke="white" stroke-miterlimit="1" x1="19.36%" x2="78.28%" y1="87.69%" y2="99.95%"/><line fill="none" stroke="white" stroke-miterlimit="1" x1="26.37%" x2="63.19%" y1="80.13%" y2="99.95%"/><line fill="none" stroke="white" stroke-miterlimit="1" x1="31.71%" x2="50.01%" y1="73.91%" y2="99.95%"/><line fill="none" stroke="white" stroke-miterlimit="1" x1="38.48%" x2="40.86%" y1="66.36%" y2="99.95%"/><line fill="none" stroke="white" stroke-miterlimit="1" x1="46.32%" x2="29.70%" y1="57.62%" y2="99.95%"/><line fill="none" stroke="white" stroke-miterlimit="1" x1="52.62%" x2="17.94%" y1="50.56%" y2="99.95%"/><line fill="none" stroke="white" stroke-miterlimit="1" x1="0.83%" x2="100.01%" y1="0.84%" y2="75.26%"/><line fill="none" stroke="white" stroke-miterlimit="1" x1="11.76%" x2="99.06%" y1="11.26%" y2="68.04%"/><line fill="none" stroke="white" stroke-miterlimit="1" x1="19.36%" x2="97.04%" y1="18.65%" y2="56.78%"/><line fill="none" stroke="white" stroke-miterlimit="1" x1="26.37%" x2="93.72%" y1="25.20%" y2="44.52%"/><line fill="none" stroke="white" stroke-miterlimit="1" x1="33.26%" x2="89.32%" y1="31.92%" y2="34.27%"/><line fill="none" stroke="white" stroke-miterlimit="1" x1="39.79%" x2="83.74%" y1="38.13%" y2="24.69%"/><line fill="none" stroke="white" stroke-miterlimit="1" x1="46.32%" x2="74.71%" y1="44.52%" y2="15.96%"/><line fill="none" stroke="white" stroke-miterlimit="1" x1="52.62%" x2="70.67%" y1="50.56%" y2="13.10%"/><line fill="none" stroke="white" stroke-miterlimit="1" x1="90.63%" x2="100.01%" y1="99.95%" y2="75.26%"/><line fill="none" stroke="white" stroke-miterlimit="1" x1="90.63%" x2="99.06%" y1="99.95%" y2="68.04%"/><line fill="none" stroke="white" stroke-miterlimit="1" x1="90.63%" x2="97.04%" y1="99.95%" y2="56.78%"/><line fill="none" stroke="white" stroke-miterlimit="1" x1="90.63%" x2="93.72%" y1="99.95%" y2="44.52%"/><line fill="none" stroke="white" stroke-miterlimit="1" x1="90.63%" x2="89.32%" y1="99.95%" y2="34.27%"/><line fill="none" stroke="white" stroke-miterlimit="1" x1="90.63%" x2="83.74%" y1="99.95%" y2="24.69%"/><line fill="none" stroke="white" stroke-miterlimit="1" x1="90.63%" x2="74.71%" y1="99.95%" y2="15.96%"/><line fill="none" stroke="white" stroke-miterlimit="1" x1="90.63%" x2="70.67%" y1="99.95%" y2="13.10%"/><line fill="none" stroke="white" stroke-miterlimit="1" x1="90.63%" x2="46.32%" y1="99.95%" y2="57.62%"/><line fill="none" stroke="white" stroke-miterlimit="1" x1="90.63%" x2="38.48%" y1="99.95%" y2="66.36%"/><line fill="none" stroke="white" stroke-miterlimit="1" x1="90.63%" x2="31.71%" y1="99.95%" y2="73.91%"/><line fill="none" stroke="white" stroke-miterlimit="1" x1="90.63%" x2="27.44%" y1="99.95%" y2="80.80%"/><line fill="none" stroke="white" stroke-miterlimit="1" x1="90.63%" x2="63.19%" y1="99.95%" y2="8.40%"/><line fill="none" stroke="white" stroke-miterlimit="1" x1="63.19%" x2="52.62%" y1="8.40%" y2="50.56%"/><line fill="none" stroke="white" stroke-miterlimit="1" x1="8.43%" x2="0.00%" y1="99.95%" y2="50.56%"/><line fill="none" stroke="white" stroke-miterlimit="1" x1="0.00%" x2="15.20%" y1="50.56%" y2="90.04%"/><line fill="none" stroke="white" stroke-miterlimit="1" x1="0.00%" x2="22.69%" y1="50.56%" y2="74.42%"/><line fill="none" stroke="white" stroke-miterlimit="1" x1="0.00%" x2="26.37%" y1="50.56%" y2="59.80%"/><line fill="none" stroke="white" stroke-miterlimit="1" x1="0.00%" x2="26.37%" y1="50.56%" y2="49.72%"/><line fill="none" stroke="white" stroke-miterlimit="1" x1="0.00%" x2="22.69%" y1="50.56%" y2="34.94%"/><line fill="none" stroke="white" stroke-miterlimit="1" x1="0.00%" x2="15.56%" y1="50.56%" y2="19.15%"/><line fill="none" stroke="white" stroke-miterlimit="1" x1="0.12%" x2="2.26%" y1="50.56%" y2="2.69%"/><line fill="none" stroke="white" stroke-miterlimit="1" x1="0.83%" x2="63.19%" y1="0.84%" y2="8.40%"/><line fill="none" stroke="white" stroke-miterlimit="1" x1="33.26%" x2="63.19%" y1="24.69%" y2="8.40%"/><line fill="none" stroke="white" stroke-miterlimit="1" x1="56.66%" x2="32.90%" y1="7.56%" y2="25.20%"/><line fill="none" stroke="white" stroke-miterlimit="1" x1="41.22%" x2="50.36%" y1="20.33%" y2="6.89%"/><line fill="none" stroke="white" stroke-miterlimit="1" x1="47.27%" x2="44.78%" y1="17.13%" y2="6.22%"/><line fill="none" stroke="white" stroke-miterlimit="1" x1="52.62%" x2="30.53%" y1="14.11%" y2="4.54%"/><line fill="none" stroke="white" stroke-miterlimit="1" x1="58.20%" x2="0.12%" y1="11.26%" y2="0.84%"/><line fill="none" stroke="white" stroke-miterlimit="1" x1="41.22%" x2="57.01%" y1="20.33%" y2="32.93%"/><line fill="none" stroke="white" stroke-miterlimit="1" x1="47.27%" x2="57.01%" y1="17.13%" y2="32.93%"/><line fill="none" stroke="white" stroke-miterlimit="1" x1="52.62%" x2="57.01%" y1="14.11%" y2="32.93%"/><line fill="none" stroke="white" stroke-miterlimit="1" x1="58.20%" x2="56.90%" y1="11.26%" y2="31.92%"/><line fill="none" stroke="white" stroke-miterlimit="1" x1="5.94%" x2="37.18%" y1="4.54%" y2="7.39%"/><line fill="none" stroke="white" stroke-miterlimit="1" x1="12.71%" x2="26.37%" y1="9.74%" y2="5.54%"/><line fill="none" stroke="white" stroke-miterlimit="1" x1="33.26%" x2="5.94%" y1="25.53%" y2="1.85%"/><line fill="none" stroke="white" stroke-miterlimit="1" x1="33.26%" x2="24.59%" y1="25.37%" y2="6.22%"/><line fill="none" stroke="white" stroke-miterlimit="1" x1="33.14%" x2="37.06%" y1="25.37%" y2="7.56%"/></svg>