<?xml version="1.0" encoding="utf-8"?>
<!-- Generator: Adobe Illustrator 16.0.0, SVG Export Plug-In . SVG Version: 6.00 Build 0)  -->
<!DOCTYPE svg PUBLIC "-//W3C//DTD SVG 1.1//EN" "http://www.w3.org/Graphics/SVG/1.1/DTD/svg11.dtd">
<svg version="1.1" id="Layer_1" xmlns="http://www.w3.org/2000/svg" xmlns:xlink="http://www.w3.org/1999/xlink" x="0px" y="0px"
	 width="841.891px" height="595.279px" viewBox="0 0 841.891 595.279" enable-background="new 0 0 841.891 595.279"
	 xml:space="preserve">
<line fill="none" stroke="#FFFFFF" stroke-miterlimit="10" x1="461.947" y1="200.627" x2="458.007" y2="209.242"/>
<line fill="none" stroke="#FFFFFF" stroke-miterlimit="10" x1="458.007" y1="209.242" x2="446.191" y2="217.119"/>
<line fill="none" stroke="#FFFFFF" stroke-miterlimit="10" x1="446.191" y1="217.119" x2="454.562" y2="228.196"/>
<line fill="none" stroke="#FFFFFF" stroke-miterlimit="10" x1="454.562" y1="228.196" x2="459.977" y2="234.104"/>
<line fill="none" stroke="#FFFFFF" stroke-miterlimit="10" x1="459.977" y1="234.104" x2="459.977" y2="240.258"/>
<line fill="none" stroke="#FFFFFF" stroke-miterlimit="10" x1="459.977" y1="240.258" x2="479.915" y2="237.181"/>
<line fill="none" stroke="#FFFFFF" stroke-miterlimit="10" x1="479.915" y1="237.181" x2="500.349" y2="237.181"/>
<line fill="none" stroke="#FFFFFF" stroke-miterlimit="10" x1="500.349" y1="237.181" x2="529.149" y2="237.181"/>
<line fill="none" stroke="#FFFFFF" stroke-miterlimit="10" x1="529.149" y1="237.181" x2="558.934" y2="260.197"/>
<line fill="none" stroke="#FFFFFF" stroke-miterlimit="10" x1="558.934" y1="260.197" x2="578.872" y2="272.26"/>
<line fill="none" stroke="#FFFFFF" stroke-miterlimit="10" x1="578.872" y1="272.26" x2="586.996" y2="281.118"/>
<line fill="none" stroke="#FFFFFF" stroke-miterlimit="10" x1="586.996" y1="281.118" x2="572.718" y2="306.965"/>
<line fill="none" stroke="#FFFFFF" stroke-miterlimit="10" x1="572.718" y1="306.965" x2="554.256" y2="326.904"/>
<line fill="none" stroke="#FFFFFF" stroke-miterlimit="10" x1="554.256" y1="326.904" x2="572.718" y2="344.383"/>
<line fill="none" stroke="#FFFFFF" stroke-miterlimit="10" x1="572.718" y1="344.383" x2="584.78" y2="349.797"/>
<line fill="none" stroke="#FFFFFF" stroke-miterlimit="10" x1="584.78" y1="349.797" x2="563.485" y2="358.657"/>
<line fill="none" stroke="#FFFFFF" stroke-miterlimit="10" x1="562.379" y1="358.657" x2="560.655" y2="369.981"/>
<line fill="none" stroke="#FFFFFF" stroke-miterlimit="10" x1="560.655" y1="369.981" x2="586.996" y2="369.981"/>
<line fill="none" stroke="#FFFFFF" stroke-miterlimit="10" x1="586.996" y1="369.981" x2="596.843" y2="362.105"/>
<line fill="none" stroke="#FFFFFF" stroke-miterlimit="10" x1="596.843" y1="362.105" x2="608.164" y2="364.319"/>
<line fill="none" stroke="#FFFFFF" stroke-miterlimit="10" x1="608.164" y1="364.319" x2="612.104" y2="358.657"/>
<line fill="none" stroke="#FFFFFF" stroke-miterlimit="10" x1="612.104" y1="358.657" x2="602.505" y2="352.505"/>
<line fill="none" stroke="#FFFFFF" stroke-miterlimit="10" x1="602.505" y1="352.505" x2="613.826" y2="342.656"/>
<line fill="none" stroke="#FFFFFF" stroke-miterlimit="10" x1="613.826" y1="342.656" x2="620.229" y2="314.35"/>
<line fill="none" stroke="#FFFFFF" stroke-miterlimit="10" x1="620.229" y1="314.35" x2="624.411" y2="308.936"/>
<line fill="none" stroke="#FFFFFF" stroke-miterlimit="10" x1="624.411" y1="308.936" x2="625.643" y2="284.81"/>
<line fill="none" stroke="#FFFFFF" stroke-miterlimit="10" x1="625.643" y1="284.81" x2="630.566" y2="274.964"/>
<line fill="none" stroke="#FFFFFF" stroke-miterlimit="10" x1="630.566" y1="274.964" x2="644.844" y2="270.534"/>
<line fill="none" stroke="#FFFFFF" stroke-miterlimit="10" x1="644.844" y1="270.534" x2="673.645" y2="269.548"/>
<line fill="none" stroke="#FFFFFF" stroke-miterlimit="10" x1="673.645" y1="269.548" x2="691.86" y2="270.042"/>
<line fill="none" stroke="#FFFFFF" stroke-miterlimit="10" x1="691.86" y1="270.042" x2="688.907" y2="279.887"/>
<line fill="none" stroke="#FFFFFF" stroke-miterlimit="10" x1="688.907" y1="279.887" x2="688.907" y2="294.041"/>
<line fill="none" stroke="#FFFFFF" stroke-miterlimit="10" x1="688.907" y1="294.041" x2="695.8" y2="313.117"/>
<line fill="none" stroke="#FFFFFF" stroke-miterlimit="10" x1="695.8" y1="313.117" x2="701.461" y2="326.904"/>
<line fill="none" stroke="#FFFFFF" stroke-miterlimit="10" x1="701.461" y1="326.904" x2="701.461" y2="356.933"/>
<line fill="none" stroke="#FFFFFF" stroke-miterlimit="10" x1="701.461" y1="356.933" x2="684.476" y2="375.148"/>
<line fill="none" stroke="#FFFFFF" stroke-miterlimit="10" x1="684.476" y1="375.148" x2="669.459" y2="382.285"/>
<line fill="none" stroke="#FFFFFF" stroke-miterlimit="10" x1="669.459" y1="382.285" x2="669.459" y2="391.888"/>
<line fill="none" stroke="#FFFFFF" stroke-miterlimit="10" x1="669.459" y1="391.888" x2="676.968" y2="394.596"/>
<line fill="none" stroke="#FFFFFF" stroke-miterlimit="10" x1="676.968" y1="394.596" x2="687.183" y2="393.24"/>
<line fill="none" stroke="#FFFFFF" stroke-miterlimit="10" x1="687.183" y1="393.24" x2="723.86" y2="354.227"/>
<line fill="none" stroke="#FFFFFF" stroke-miterlimit="10" x1="723.86" y1="354.227" x2="723.86" y2="344.383"/>
<line fill="none" stroke="#FFFFFF" stroke-miterlimit="10" x1="723.86" y1="344.383" x2="719.185" y2="338.717"/>
<line fill="none" stroke="#FFFFFF" stroke-miterlimit="10" x1="719.185" y1="338.717" x2="717.707" y2="306.965"/>
<line fill="none" stroke="#FFFFFF" stroke-miterlimit="10" x1="717.707" y1="306.965" x2="723.86" y2="294.041"/>
<line fill="none" stroke="#FFFFFF" stroke-miterlimit="10" x1="723.86" y1="294.041" x2="745.031" y2="276.688"/>
<line fill="none" stroke="#FFFFFF" stroke-miterlimit="10" x1="745.031" y1="276.688" x2="767.925" y2="266.227"/>
<line fill="none" stroke="#FFFFFF" stroke-miterlimit="10" x1="767.925" y1="266.227" x2="767.925" y2="279.887"/>
<line fill="none" stroke="#FFFFFF" stroke-miterlimit="10" x1="767.925" y1="279.887" x2="777.525" y2="292.444"/>
<line fill="none" stroke="#FFFFFF" stroke-miterlimit="10" x1="777.525" y1="292.444" x2="790.078" y2="313.117"/>
<line fill="none" stroke="#FFFFFF" stroke-miterlimit="10" x1="790.078" y1="313.117" x2="801.157" y2="332.322"/>
<line fill="none" stroke="#FFFFFF" stroke-miterlimit="10" x1="801.157" y1="332.322" x2="814.449" y2="354.227"/>
<line fill="none" stroke="#FFFFFF" stroke-miterlimit="10" x1="814.449" y1="354.227" x2="814.449" y2="401.739"/>
<line fill="none" stroke="#FFFFFF" stroke-miterlimit="10" x1="814.449" y1="401.739" x2="807.803" y2="410.971"/>
<line fill="none" stroke="#FFFFFF" stroke-miterlimit="10" x1="807.803" y1="410.971" x2="807.803" y2="420.571"/>
<line fill="none" stroke="#FFFFFF" stroke-miterlimit="10" x1="807.803" y1="420.571" x2="820.357" y2="420.571"/>
<line fill="none" stroke="#FFFFFF" stroke-miterlimit="10" x1="820.357" y1="420.571" x2="831.435" y2="410.971"/>
<line fill="none" stroke="#FFFFFF" stroke-miterlimit="10" x1="831.435" y1="410.971" x2="831.435" y2="401.739"/>
<line fill="none" stroke="#FFFFFF" stroke-miterlimit="10" x1="831.435" y1="401.739" x2="828.111" y2="356.933"/>
<line fill="none" stroke="#FFFFFF" stroke-miterlimit="10" x1="828.111" y1="356.933" x2="826.265" y2="335.643"/>
<line fill="none" stroke="#FFFFFF" stroke-miterlimit="10" x1="826.265" y1="335.643" x2="818.142" y2="314.35"/>
<line fill="none" stroke="#FFFFFF" stroke-miterlimit="10" x1="818.142" y1="314.35" x2="818.142" y2="231.889"/>
<line fill="none" stroke="#FFFFFF" stroke-miterlimit="10" x1="818.142" y1="231.889" x2="811.495" y2="204.195"/>
<line fill="none" stroke="#FFFFFF" stroke-miterlimit="10" x1="811.495" y1="204.195" x2="807.803" y2="192.379"/>
<line fill="none" stroke="#FFFFFF" stroke-miterlimit="10" x1="807.803" y1="192.379" x2="828.111" y2="172.81"/>
<line fill="none" stroke="#FFFFFF" stroke-miterlimit="10" x1="828.111" y1="172.81" x2="832.543" y2="163.21"/>
<line fill="none" stroke="#FFFFFF" stroke-miterlimit="10" x1="832.543" y1="163.21" x2="830.327" y2="118.901"/>
<line fill="none" stroke="#FFFFFF" stroke-miterlimit="10" x1="830.327" y1="118.901" x2="814.817" y2="107.085"/>
<line fill="none" stroke="#FFFFFF" stroke-miterlimit="10" x1="814.817" y1="107.085" x2="814.817" y2="125.177"/>
<line fill="none" stroke="#FFFFFF" stroke-miterlimit="10" x1="814.817" y1="125.177" x2="811.495" y2="148.44"/>
<line fill="none" stroke="#FFFFFF" stroke-miterlimit="10" x1="811.495" y1="148.44" x2="805.219" y2="165.425"/>
<line fill="none" stroke="#FFFFFF" stroke-miterlimit="10" x1="805.219" y1="165.425" x2="793.402" y2="170.594"/>
<line fill="none" stroke="#FFFFFF" stroke-miterlimit="10" x1="793.402" y1="170.594" x2="788.786" y2="168.01"/>
<line fill="none" stroke="#FFFFFF" stroke-miterlimit="10" x1="788.786" y1="168.01" x2="780.479" y2="152.316"/>
<line fill="none" stroke="#FFFFFF" stroke-miterlimit="10" x1="780.479" y1="152.316" x2="723.86" y2="152.316"/>
<line fill="none" stroke="#FFFFFF" stroke-miterlimit="10" x1="723.86" y1="152.316" x2="679.307" y2="148.44"/>
<line fill="none" stroke="#FFFFFF" stroke-miterlimit="10" x1="679.307" y1="148.44" x2="652.228" y2="148.44"/>
<line fill="none" stroke="#FFFFFF" stroke-miterlimit="10" x1="652.228" y1="148.44" x2="624.411" y2="136.809"/>
<line fill="none" stroke="#FFFFFF" stroke-miterlimit="10" x1="598.073" y1="136.809" x2="549.334" y2="141.055"/>
<line fill="none" stroke="#FFFFFF" stroke-miterlimit="10" x1="598.073" y1="136.809" x2="626.025" y2="137.483"/>
<line fill="none" stroke="#FFFFFF" stroke-miterlimit="10" x1="549.334" y1="141.055" x2="524.595" y2="145.485"/>
<line fill="none" stroke="#FFFFFF" stroke-miterlimit="10" x1="524.595" y1="145.485" x2="514.748" y2="152.316"/>
<line fill="none" stroke="#FFFFFF" stroke-miterlimit="10" x1="514.748" y1="152.316" x2="498.01" y2="155.455"/>
<line fill="none" stroke="#FFFFFF" stroke-miterlimit="10" x1="498.01" y1="155.455" x2="479.915" y2="162.84"/>
<line fill="none" stroke="#FFFFFF" stroke-miterlimit="10" x1="479.915" y1="162.84" x2="476.594" y2="169.486"/>
<line fill="none" stroke="#FFFFFF" stroke-miterlimit="10" x1="476.594" y1="169.486" x2="469.946" y2="171.702"/>
<line fill="none" stroke="#FFFFFF" stroke-miterlimit="10" x1="469.946" y1="171.702" x2="465.516" y2="182.779"/>
<line fill="none" stroke="#FFFFFF" stroke-miterlimit="10" x1="465.516" y1="182.779" x2="459.977" y2="184.995"/>
<line fill="none" stroke="#FFFFFF" stroke-miterlimit="10" x1="459.977" y1="184.995" x2="462.746" y2="187.948"/>
<line fill="none" stroke="#FFFFFF" stroke-miterlimit="10" x1="462.746" y1="187.948" x2="461.947" y2="200.627"/>
<line fill="none" stroke="#FFFFFF" stroke-miterlimit="10" x1="26.487" y1="338.477" x2="34.363" y2="354.227"/>
<line fill="none" stroke="#FFFFFF" stroke-miterlimit="10" x1="34.363" y1="354.227" x2="45.195" y2="354.227"/>
<line fill="none" stroke="#FFFFFF" stroke-miterlimit="10" x1="45.195" y1="354.227" x2="39.779" y2="289.245"/>
<line fill="none" stroke="#FFFFFF" stroke-miterlimit="10" x1="39.779" y1="289.245" x2="49.626" y2="277.43"/>
<line fill="none" stroke="#FFFFFF" stroke-miterlimit="10" x1="49.626" y1="277.43" x2="69.811" y2="263.152"/>
<line fill="none" stroke="#FFFFFF" stroke-miterlimit="10" x1="69.811" y1="263.152" x2="80.643" y2="248.689"/>
<line fill="none" stroke="#FFFFFF" stroke-miterlimit="10" x1="80.643" y1="248.689" x2="89.504" y2="231.15"/>
<line fill="none" stroke="#FFFFFF" stroke-miterlimit="10" x1="89.504" y1="231.15" x2="95.904" y2="240.258"/>
<line fill="none" stroke="#FFFFFF" stroke-miterlimit="10" x1="95.904" y1="240.258" x2="99.843" y2="260.197"/>
<line fill="none" stroke="#FFFFFF" stroke-miterlimit="10" x1="99.843" y1="260.197" x2="99.843" y2="266.227"/>
<line fill="none" stroke="#FFFFFF" stroke-miterlimit="10" x1="95.904" y1="296.136" x2="102.797" y2="321.736"/>
<line fill="none" stroke="#FFFFFF" stroke-miterlimit="10" x1="102.797" y1="321.736" x2="116.089" y2="349.797"/>
<line fill="none" stroke="#FFFFFF" stroke-miterlimit="10" x1="116.089" y1="349.797" x2="116.089" y2="364.319"/>
<line fill="none" stroke="#FFFFFF" stroke-miterlimit="10" x1="116.089" y1="364.319" x2="140.213" y2="364.319"/>
<line fill="none" stroke="#FFFFFF" stroke-miterlimit="10" x1="140.213" y1="364.319" x2="148.583" y2="362.108"/>
<line fill="none" stroke="#FFFFFF" stroke-miterlimit="10" x1="148.583" y1="362.108" x2="148.583" y2="354.227"/>
<line fill="none" stroke="#FFFFFF" stroke-miterlimit="10" x1="148.583" y1="354.227" x2="135.782" y2="344.383"/>
<line fill="none" stroke="#FFFFFF" stroke-miterlimit="10" x1="135.782" y1="344.383" x2="128.152" y2="344.383"/>
<line fill="none" stroke="#FFFFFF" stroke-miterlimit="10" x1="128.152" y1="344.383" x2="120.521" y2="324.691"/>
<line fill="none" stroke="#FFFFFF" stroke-miterlimit="10" x1="120.521" y1="324.691" x2="116.089" y2="313.367"/>
<line fill="none" stroke="#FFFFFF" stroke-miterlimit="10" x1="116.089" y1="313.367" x2="118.305" y2="282.352"/>
<line fill="none" stroke="#FFFFFF" stroke-miterlimit="10" x1="118.305" y1="282.352" x2="124.336" y2="270.29"/>
<line fill="none" stroke="#FFFFFF" stroke-miterlimit="10" x1="124.336" y1="270.29" x2="131.967" y2="255.921"/>
<line fill="none" stroke="#FFFFFF" stroke-miterlimit="10" x1="95.904" y1="296.136" x2="99.843" y2="266.227"/>
<line fill="none" stroke="#FFFFFF" stroke-miterlimit="10" x1="131.967" y1="255.921" x2="131.967" y2="224.75"/>
<line fill="none" stroke="#FFFFFF" stroke-miterlimit="10" x1="131.967" y1="224.75" x2="142.183" y2="231.15"/>
<line fill="none" stroke="#FFFFFF" stroke-miterlimit="10" x1="142.183" y1="231.15" x2="153.998" y2="246.413"/>
<line fill="none" stroke="#FFFFFF" stroke-miterlimit="10" x1="153.998" y1="246.413" x2="172.707" y2="263.213"/>
<line fill="none" stroke="#FFFFFF" stroke-miterlimit="10" x1="172.707" y1="263.213" x2="189.938" y2="338.477"/>
<line fill="none" stroke="#FFFFFF" stroke-miterlimit="10" x1="189.938" y1="338.477" x2="211.599" y2="393.124"/>
<line fill="none" stroke="#FFFFFF" stroke-miterlimit="10" x1="211.599" y1="393.124" x2="236.708" y2="395.587"/>
<line fill="none" stroke="#FFFFFF" stroke-miterlimit="10" x1="236.708" y1="395.587" x2="248.031" y2="393.124"/>
<line fill="none" stroke="#FFFFFF" stroke-miterlimit="10" x1="248.031" y1="393.124" x2="236.708" y2="380.323"/>
<line fill="none" stroke="#FFFFFF" stroke-miterlimit="10" x1="236.708" y1="380.323" x2="215.047" y2="375.4"/>
<line fill="none" stroke="#FFFFFF" stroke-miterlimit="10" x1="215.047" y1="375.4" x2="211.599" y2="344.383"/>
<line fill="none" stroke="#FFFFFF" stroke-miterlimit="10" x1="211.599" y1="344.383" x2="205.691" y2="324.691"/>
<line fill="none" stroke="#FFFFFF" stroke-miterlimit="10" x1="205.691" y1="324.691" x2="203.231" y2="285.798"/>
<line fill="none" stroke="#FFFFFF" stroke-miterlimit="10" x1="203.231" y1="285.798" x2="229.323" y2="277.43"/>
<line fill="none" stroke="#FFFFFF" stroke-miterlimit="10" x1="229.323" y1="277.43" x2="248.031" y2="276.322"/>
<line fill="none" stroke="#FFFFFF" stroke-miterlimit="10" x1="250.494" y1="276.322" x2="259.355" y2="289.245"/>
<line fill="none" stroke="#FFFFFF" stroke-miterlimit="10" x1="259.355" y1="289.245" x2="257.385" y2="319.03"/>
<line fill="none" stroke="#FFFFFF" stroke-miterlimit="10" x1="257.385" y1="319.03" x2="259.355" y2="335.767"/>
<line fill="none" stroke="#FFFFFF" stroke-miterlimit="10" x1="259.355" y1="335.767" x2="261.816" y2="357.06"/>
<line fill="none" stroke="#FFFFFF" stroke-miterlimit="10" x1="261.816" y1="357.06" x2="260.586" y2="380.323"/>
<line fill="none" stroke="#FFFFFF" stroke-miterlimit="10" x1="260.586" y1="380.323" x2="257.385" y2="389.679"/>
<line fill="none" stroke="#FFFFFF" stroke-miterlimit="10" x1="257.385" y1="389.679" x2="258.371" y2="411.833"/>
<line fill="none" stroke="#FFFFFF" stroke-miterlimit="10" x1="258.371" y1="411.833" x2="261.2" y2="423.649"/>
<line fill="none" stroke="#FFFFFF" stroke-miterlimit="10" x1="261.2" y1="423.649" x2="274.125" y2="423.649"/>
<line fill="none" stroke="#FFFFFF" stroke-miterlimit="10" x1="274.125" y1="423.649" x2="279.048" y2="415.279"/>
<line fill="none" stroke="#FFFFFF" stroke-miterlimit="10" x1="279.048" y1="415.279" x2="276.588" y2="395.587"/>
<line fill="none" stroke="#FFFFFF" stroke-miterlimit="10" x1="276.588" y1="395.587" x2="274.125" y2="375.4"/>
<line fill="none" stroke="#FFFFFF" stroke-miterlimit="10" x1="274.125" y1="375.4" x2="281.51" y2="327.397"/>
<line fill="none" stroke="#FFFFFF" stroke-miterlimit="10" x1="281.51" y1="327.397" x2="281.51" y2="281.118"/>
<line fill="none" stroke="#FFFFFF" stroke-miterlimit="10" x1="281.51" y1="281.118" x2="288.403" y2="263.152"/>
<line fill="none" stroke="#FFFFFF" stroke-miterlimit="10" x1="288.403" y1="263.152" x2="293.326" y2="248.689"/>
<line fill="none" stroke="#FFFFFF" stroke-miterlimit="10" x1="293.326" y1="248.689" x2="300.219" y2="231.15"/>
<line fill="none" stroke="#FFFFFF" stroke-miterlimit="10" x1="300.219" y1="231.15" x2="314.003" y2="217.119"/>
<line fill="none" stroke="#FFFFFF" stroke-miterlimit="10" x1="314.003" y1="217.119" x2="328.282" y2="217.119"/>
<line fill="none" stroke="#FFFFFF" stroke-miterlimit="10" x1="328.282" y1="217.119" x2="342.066" y2="224.75"/>
<line fill="none" stroke="#FFFFFF" stroke-miterlimit="10" x1="342.066" y1="224.75" x2="359.79" y2="231.15"/>
<line fill="none" stroke="#FFFFFF" stroke-miterlimit="10" x1="359.79" y1="231.15" x2="375.051" y2="228.196"/>
<line fill="none" stroke="#FFFFFF" stroke-miterlimit="10" x1="375.051" y1="228.196" x2="378.99" y2="220.935"/>
<line fill="none" stroke="#FFFFFF" stroke-miterlimit="10" x1="378.99" y1="220.935" x2="389.821" y2="217.119"/>
<line fill="none" stroke="#FFFFFF" stroke-miterlimit="10" x1="389.821" y1="217.119" x2="395.236" y2="209.242"/>
<line fill="none" stroke="#FFFFFF" stroke-miterlimit="10" x1="395.236" y1="209.242" x2="398.683" y2="204.934"/>
<line fill="none" stroke="#FFFFFF" stroke-miterlimit="10" x1="398.683" y1="204.934" x2="384.406" y2="194.288"/>
<line fill="none" stroke="#FFFFFF" stroke-miterlimit="10" x1="384.406" y1="194.288" x2="367.421" y2="183.887"/>
<line fill="none" stroke="#FFFFFF" stroke-miterlimit="10" x1="367.421" y1="183.887" x2="363.235" y2="174.041"/>
<line fill="none" stroke="#FFFFFF" stroke-miterlimit="10" x1="363.235" y1="174.041" x2="359.79" y2="159.147"/>
<line fill="none" stroke="#FFFFFF" stroke-miterlimit="10" x1="359.79" y1="159.147" x2="342.066" y2="141.055"/>
<line fill="none" stroke="#FFFFFF" stroke-miterlimit="10" x1="342.066" y1="141.055" x2="324.834" y2="131.208"/>
<line fill="none" stroke="#FFFFFF" stroke-miterlimit="10" x1="324.834" y1="131.208" x2="311.541" y2="125.3"/>
<line fill="none" stroke="#FFFFFF" stroke-miterlimit="10" x1="311.541" y1="125.3" x2="300.219" y2="125.3"/>
<line fill="none" stroke="#FFFFFF" stroke-miterlimit="10" x1="300.219" y1="125.3" x2="281.51" y2="134.162"/>
<line fill="none" stroke="#FFFFFF" stroke-miterlimit="10" x1="281.51" y1="134.162" x2="266.248" y2="141.055"/>
<line fill="none" stroke="#FFFFFF" stroke-miterlimit="10" x1="266.248" y1="141.055" x2="238.677" y2="143.271"/>
<line fill="none" stroke="#FFFFFF" stroke-miterlimit="10" x1="238.677" y1="143.271" x2="229.323" y2="143.271"/>
<line fill="none" stroke="#FFFFFF" stroke-miterlimit="10" x1="229.323" y1="143.271" x2="210.123" y2="137.608"/>
<line fill="none" stroke="#FFFFFF" stroke-miterlimit="10" x1="210.123" y1="137.608" x2="165.813" y2="118.901"/>
<line fill="none" stroke="#FFFFFF" stroke-miterlimit="10" x1="165.813" y1="118.901" x2="131.967" y2="106.1"/>
<line fill="none" stroke="#FFFFFF" stroke-miterlimit="10" x1="131.967" y1="106.1" x2="105.257" y2="99.208"/>
<line fill="none" stroke="#FFFFFF" stroke-miterlimit="10" x1="105.257" y1="99.208" x2="75.227" y2="102.654"/>
<line fill="none" stroke="#FFFFFF" stroke-miterlimit="10" x1="75.227" y1="102.654" x2="64.396" y2="102.654"/>
<line fill="none" stroke="#FFFFFF" stroke-miterlimit="10" x1="64.396" y1="102.654" x2="49.626" y2="83.453"/>
<line fill="none" stroke="#FFFFFF" stroke-miterlimit="10" x1="49.626" y1="83.453" x2="47.656" y2="62.776"/>
<line fill="none" stroke="#FFFFFF" stroke-miterlimit="10" x1="47.656" y1="62.776" x2="57.011" y2="44.561"/>
<line fill="none" stroke="#FFFFFF" stroke-miterlimit="10" x1="57.011" y1="44.561" x2="75.227" y2="40.129"/>
<line fill="none" stroke="#FFFFFF" stroke-miterlimit="10" x1="75.227" y1="40.129" x2="85.074" y2="56.376"/>
<line fill="none" stroke="#FFFFFF" stroke-miterlimit="10" x1="85.074" y1="56.376" x2="89.504" y2="73.114"/>
<line fill="none" stroke="#FFFFFF" stroke-miterlimit="10" x1="89.504" y1="73.114" x2="95.904" y2="78.037"/>
<line fill="none" stroke="#FFFFFF" stroke-miterlimit="10" x1="95.904" y1="78.037" x2="102.797" y2="67.698"/>
<line fill="none" stroke="#FFFFFF" stroke-miterlimit="10" x1="102.797" y1="67.698" x2="99.843" y2="48.253"/>
<line fill="none" stroke="#FFFFFF" stroke-miterlimit="10" x1="99.843" y1="49.237" x2="87.289" y2="23.882"/>
<line fill="none" stroke="#FFFFFF" stroke-miterlimit="10" x1="87.289" y1="23.882" x2="69.811" y2="18.467"/>
<line fill="none" stroke="#FFFFFF" stroke-miterlimit="10" x1="69.811" y1="18.467" x2="45.318" y2="21.175"/>
<line fill="none" stroke="#FFFFFF" stroke-miterlimit="10" x1="45.318" y1="21.175" x2="32.763" y2="36.559"/>
<line fill="none" stroke="#FFFFFF" stroke-miterlimit="10" x1="32.763" y1="36.559" x2="27.226" y2="53.668"/>
<line fill="none" stroke="#FFFFFF" stroke-miterlimit="10" x1="27.226" y1="53.668" x2="25.379" y2="86.408"/>
<line fill="none" stroke="#FFFFFF" stroke-miterlimit="10" x1="25.379" y1="86.408" x2="29.994" y2="104.5"/>
<line fill="none" stroke="#FFFFFF" stroke-miterlimit="10" x1="29.994" y1="104.5" x2="41.256" y2="125.3"/>
<line fill="none" stroke="#FFFFFF" stroke-miterlimit="10" x1="41.256" y1="125.3" x2="41.256" y2="134.162"/>
<line fill="none" stroke="#FFFFFF" stroke-miterlimit="10" x1="41.256" y1="134.162" x2="35.625" y2="148.07"/>
<line fill="none" stroke="#FFFFFF" stroke-miterlimit="10" x1="35.625" y1="148.07" x2="27.687" y2="161.364"/>
<line fill="none" stroke="#FFFFFF" stroke-miterlimit="10" x1="27.687" y1="161.364" x2="29.994" y2="191.272"/>
<line fill="none" stroke="#FFFFFF" stroke-miterlimit="10" x1="29.994" y1="191.272" x2="33.502" y2="210.103"/>
<line fill="none" stroke="#FFFFFF" stroke-miterlimit="10" x1="33.502" y1="210.103" x2="35.625" y2="224.75"/>
<line fill="none" stroke="#FFFFFF" stroke-miterlimit="10" x1="35.625" y1="224.75" x2="38.441" y2="238.781"/>
<line fill="none" stroke="#FFFFFF" stroke-miterlimit="10" x1="38.441" y1="238.781" x2="37.033" y2="248.689"/>
<line fill="none" stroke="#FFFFFF" stroke-miterlimit="10" x1="37.033" y1="248.689" x2="31.748" y2="260.197"/>
<line fill="none" stroke="#FFFFFF" stroke-miterlimit="10" x1="31.748" y1="260.197" x2="22.056" y2="270.29"/>
<line fill="none" stroke="#FFFFFF" stroke-miterlimit="10" x1="22.056" y1="270.29" x2="23.902" y2="285.798"/>
<line fill="none" stroke="#FFFFFF" stroke-miterlimit="10" x1="23.902" y1="285.798" x2="26.487" y2="338.477"/>
<line fill="none" stroke="#FFFFFF" stroke-miterlimit="10" x1="26.322" y1="393.124" x2="118.51" y2="424.018"/>
<line fill="none" stroke="#FFFFFF" stroke-miterlimit="10" x1="118.51" y1="424.018" x2="24.984" y2="458.447"/>
<line fill="none" stroke="#FFFFFF" stroke-miterlimit="10" x1="344.804" y1="468.525" x2="323.12" y2="453.451"/>
<line fill="none" stroke="#FFFFFF" stroke-miterlimit="10" x1="323.12" y1="453.451" x2="296.513" y2="460.576"/>
<line fill="none" stroke="#FFFFFF" stroke-miterlimit="10" x1="398.683" y1="368.692" x2="500.349" y2="411.833"/>
<line fill="none" stroke="#FFFFFF" stroke-miterlimit="10" x1="500.349" y1="411.833" x2="506.335" y2="335.767"/>
</svg>
